<svg width="2706" height="2316" xmlns="http://www.w3.org/2000/svg" xmlns:xlink="http://www.w3.org/1999/xlink" xml:space="preserve" overflow="hidden"><g transform="translate(-1120 -29)"><path d="M1188.36 391.208 1578.12 391.208 1578.12 780.972 1188.36 780.972Z" fill="#FFFFFF" fill-rule="evenodd"/><path d="M1967.89 391.208 2357.65 391.208 2357.65 780.972 1967.89 780.972Z" fill="#DAE3F3" fill-rule="evenodd"/><path d="M2357.65 391.208 2747.42 391.208 2747.42 780.972 2357.65 780.972Z" fill="#FFFFFF" fill-rule="evenodd"/><path d="M2747.42 391.208 3137.18 391.208 3137.18 780.972 2747.42 780.972Z" fill="#FFFFFF" fill-rule="evenodd"/><path d="M1188.36 780.972 1578.12 780.972 1578.12 1170.74 1188.36 1170.74Z" fill="#FFFFFF" fill-rule="evenodd"/><path d="M1578.12 780.972 1967.89 780.972 1967.89 1170.74 1578.12 1170.74Z" fill="#8FAADC" fill-rule="evenodd"/><path d="M1967.89 780.972 2357.65 780.972 2357.65 1170.74 1967.89 1170.74Z" fill="#FFFFFF" fill-rule="evenodd"/><path d="M2357.65 780.972 2747.42 780.972 2747.42 1170.74 2357.65 1170.74Z" fill="#FFFFFF" fill-rule="evenodd"/><path d="M2747.42 780.972 3137.18 780.972 3137.18 1170.74 2747.42 1170.74Z" fill="#FFFFFF" fill-rule="evenodd"/><path d="M1188.36 1170.74 1578.12 1170.74 1578.12 1560.5 1188.36 1560.5Z" fill="#FFFFFF" fill-rule="evenodd"/><path d="M1578.12 1170.74 1967.89 1170.74 1967.89 1560.5 1578.12 1560.5Z" fill="#FFFFFF" fill-rule="evenodd"/><path d="M1967.89 1170.74 2357.65 1170.74 2357.65 1560.5 1967.89 1560.5Z" fill="#DBDBDB" fill-rule="evenodd"/><path d="M2357.65 1170.74 2747.42 1170.74 2747.42 1560.5 2357.65 1560.5Z" fill="#FFFFFF" fill-rule="evenodd"/><path d="M2747.42 1170.74 3137.18 1170.74 3137.18 1560.5 2747.42 1560.5Z" fill="#FFFFFF" fill-rule="evenodd"/><path d="M1188.36 1560.5 1578.12 1560.5 1578.12 1950.26 1188.36 1950.26Z" fill="#FFFFFF" fill-rule="evenodd"/><path d="M1578.12 1560.5 1967.89 1560.5 1967.89 1950.26 1578.12 1950.26Z" fill="#FFFFFF" fill-rule="evenodd"/><path d="M1967.89 1560.5 2357.65 1560.5 2357.65 1950.26 1967.89 1950.26Z" fill="#FFFFFF" fill-rule="evenodd"/><path d="M2357.65 1560.5 2747.42 1560.5 2747.42 1950.26 2357.65 1950.26Z" fill="#FFFFFF" fill-rule="evenodd"/><path d="M2747.42 1560.5 3137.18 1560.5 3137.18 1950.26 2747.42 1950.26Z" fill="#FFFFFF" fill-rule="evenodd"/><path d="M1188.36 1950.26 1578.12 1950.26 1578.12 2340.03 1188.36 2340.03Z" fill="#FFFFFF" fill-rule="evenodd"/><path d="M1578.12 1950.26 1967.89 1950.26 1967.89 2340.03 1578.12 2340.03Z" fill="#FFFFFF" fill-rule="evenodd"/><path d="M1967.89 1950.26 2357.65 1950.26 2357.65 2340.03 1967.89 2340.03Z" fill="#FFFFFF" fill-rule="evenodd"/><path d="M2357.65 1950.26 2747.42 1950.26 2747.42 2340.03 2357.65 2340.03Z" fill="#FFFFFF" fill-rule="evenodd"/><path d="M2747.42 1950.26 3137.18 1950.26 3137.18 2340.03 2747.42 2340.03Z" fill="#FFFFFF" fill-rule="evenodd"/><path d="M1578.12 388.916 1578.12 2342.32" stroke="#A5A5A5" stroke-width="4.58333" stroke-linejoin="round" stroke-miterlimit="10" fill="none" fill-rule="evenodd"/><path d="M1967.89 388.916 1967.89 2342.32" stroke="#A5A5A5" stroke-width="4.58333" stroke-linejoin="round" stroke-miterlimit="10" fill="none" fill-rule="evenodd"/><path d="M2357.65 388.916 2357.65 2342.32" stroke="#A5A5A5" stroke-width="4.58333" stroke-linejoin="round" stroke-miterlimit="10" fill="none" fill-rule="evenodd"/><path d="M2747.42 388.916 2747.42 2342.32" stroke="#A5A5A5" stroke-width="4.58333" stroke-linejoin="round" stroke-miterlimit="10" fill="none" fill-rule="evenodd"/><path d="M1186.07 780.972 3139.47 780.972" stroke="#A5A5A5" stroke-width="4.58333" stroke-linejoin="round" stroke-miterlimit="10" fill="none" fill-rule="evenodd"/><path d="M1186.07 1170.74 3139.47 1170.74" stroke="#A5A5A5" stroke-width="4.58333" stroke-linejoin="round" stroke-miterlimit="10" fill="none" fill-rule="evenodd"/><path d="M1186.07 1560.5 3139.47 1560.5" stroke="#A5A5A5" stroke-width="4.58333" stroke-linejoin="round" stroke-miterlimit="10" fill="none" fill-rule="evenodd"/><path d="M1186.07 1950.26 3139.47 1950.26" stroke="#A5A5A5" stroke-width="4.58333" stroke-linejoin="round" stroke-miterlimit="10" fill="none" fill-rule="evenodd"/><path d="M1188.36 388.916 1188.36 2342.32" stroke="#A5A5A5" stroke-width="4.58333" stroke-linejoin="round" stroke-miterlimit="10" fill="none" fill-rule="evenodd"/><path d="M3137.18 388.916 3137.18 2342.32" stroke="#A5A5A5" stroke-width="4.58333" stroke-linejoin="round" stroke-miterlimit="10" fill="none" fill-rule="evenodd"/><path d="M1186.07 391.208 3139.47 391.208" stroke="#A5A5A5" stroke-width="4.58333" stroke-linejoin="round" stroke-miterlimit="10" fill="none" fill-rule="evenodd"/><path d="M1186.07 2340.03 3139.47 2340.03" stroke="#A5A5A5" stroke-width="4.58333" stroke-linejoin="round" stroke-miterlimit="10" fill="none" fill-rule="evenodd"/><text font-family="Calibri,Calibri_MSFontService,sans-serif" font-weight="400" font-size="83" transform="matrix(1 0 0 1 2900.47 614)">15</text><text font-family="Calibri,Calibri_MSFontService,sans-serif" font-weight="400" font-size="83" transform="matrix(1 0 0 1 2510.71 614)">10</text><text font-family="Calibri,Calibri_MSFontService,sans-serif" font-weight="400" font-size="83" transform="matrix(1 0 0 1 2141.86 614)">5</text><text font-family="Calibri,Calibri_MSFontService,sans-serif" font-weight="400" font-size="83" transform="matrix(1 0 0 1 1752.09 614)">7</text><text font-family="Calibri,Calibri_MSFontService,sans-serif" font-weight="400" font-size="83" transform="matrix(1 0 0 1 1341.42 614)">10</text><text font-family="Calibri,Calibri_MSFontService,sans-serif" font-weight="400" font-size="83" transform="matrix(1 0 0 1 2900.47 1003)">15</text><text font-family="Calibri,Calibri_MSFontService,sans-serif" font-weight="400" font-size="83" transform="matrix(1 0 0 1 2510.71 1003)">10</text><text font-family="Calibri,Calibri_MSFontService,sans-serif" font-weight="400" font-size="83" transform="matrix(1 0 0 1 2141.86 1003)">8</text><text font-family="Calibri,Calibri_MSFontService,sans-serif" font-weight="400" font-size="83" transform="matrix(1 0 0 1 1752.09 1003)">7</text><text font-family="Calibri,Calibri_MSFontService,sans-serif" font-weight="400" font-size="83" transform="matrix(1 0 0 1 1341.42 1003)">15</text><text font-family="Calibri,Calibri_MSFontService,sans-serif" font-weight="400" font-size="83" transform="matrix(1 0 0 1 2900.47 1393)">15</text><text font-family="Calibri,Calibri_MSFontService,sans-serif" font-weight="400" font-size="83" transform="matrix(1 0 0 1 2510.71 1393)">12</text><text font-family="Calibri,Calibri_MSFontService,sans-serif" font-weight="400" font-size="83" transform="matrix(1 0 0 1 2120.95 1393)">10</text><text font-family="Calibri,Calibri_MSFontService,sans-serif" font-weight="400" font-size="83" transform="matrix(1 0 0 1 1731.18 1393)">30</text><text font-family="Calibri,Calibri_MSFontService,sans-serif" font-weight="400" font-size="83" transform="matrix(1 0 0 1 1341.42 1393)">20</text><text font-family="Calibri,Calibri_MSFontService,sans-serif" font-weight="400" font-size="83" transform="matrix(1 0 0 1 2900.47 1783)">16</text><text font-family="Calibri,Calibri_MSFontService,sans-serif" font-weight="400" font-size="83" transform="matrix(1 0 0 1 2510.71 1783)">17</text><text font-family="Calibri,Calibri_MSFontService,sans-serif" font-weight="400" font-size="83" transform="matrix(1 0 0 1 2120.95 1783)">12</text><text font-family="Calibri,Calibri_MSFontService,sans-serif" font-weight="400" font-size="83" transform="matrix(1 0 0 1 1731.18 1783)">20</text><text font-family="Calibri,Calibri_MSFontService,sans-serif" font-weight="400" font-size="83" transform="matrix(1 0 0 1 1341.42 1783)">30</text><text font-family="Calibri,Calibri_MSFontService,sans-serif" font-weight="400" font-size="83" transform="matrix(1 0 0 1 2900.47 2173)">17</text><text font-family="Calibri,Calibri_MSFontService,sans-serif" font-weight="400" font-size="83" transform="matrix(1 0 0 1 2510.71 2173)">18</text><text font-family="Calibri,Calibri_MSFontService,sans-serif" font-weight="400" font-size="83" transform="matrix(1 0 0 1 2120.95 2173)">20</text><text font-family="Calibri,Calibri_MSFontService,sans-serif" font-weight="400" font-size="83" transform="matrix(1 0 0 1 1731.18 2173)">30</text><text font-family="Calibri,Calibri_MSFontService,sans-serif" font-weight="400" font-size="83" transform="matrix(1 0 0 1 1341.42 2173)">40</text><g><g><g><path d="M2040 1396.25C2022.81 1396.25 2009.06 1382.5 2009.06 1365.31 2009.06 1348.13 2022.81 1334.38 2040 1334.38 2057.19 1334.38 2070.94 1348.13 2070.94 1365.31 2070.94 1382.5 2057.19 1396.25 2040 1396.25ZM2040 1293.13C2016.28 1293.13 1993.94 1304.81 1980.53 1324.75 1967.13 1344.34 1964.38 1369.44 1972.97 1391.78L2005.63 1463.97 2033.81 1523.09C2034.84 1525.5 2037.25 1526.88 2040 1526.88 2042.75 1526.88 2045.16 1525.5 2046.19 1523.09L2074.38 1463.97 2107.03 1391.78C2115.62 1369.44 2112.88 1344.34 2099.47 1324.75 2086.06 1304.81 2063.72 1293.13 2040 1293.13Z" stroke="#FFFFFF" stroke-width="3.4375" fill="#2F5597"/></g></g></g><path d="M1578 1365.5C1578 1042.69 1839.69 781 2162.5 781 2485.31 781 2747 1042.69 2747 1365.5 2747 1688.31 2485.31 1950 2162.5 1950 1839.69 1950 1578 1688.31 1578 1365.5Z" stroke="#9DC3E6" stroke-width="10.3125" stroke-miterlimit="8" fill="none" fill-rule="evenodd"/><path d="M1188 1365.5C1188 827.298 1624.3 391 2162.5 391 2700.7 391 3137 827.298 3137 1365.5 3137 1903.7 2700.7 2340 2162.5 2340 1624.3 2340 1188 1903.7 1188 1365.5Z" stroke="#1F4E79" stroke-width="10.3125" stroke-miterlimit="8" fill="none" fill-rule="evenodd"/><text font-family="Calibri,Calibri_MSFontService,sans-serif" font-weight="400" font-size="110" transform="matrix(1 0 0 1 1186.84 166)">Values: Upstream Area Difference % </text><text font-family="Calibri,Calibri_MSFontService,sans-serif" font-weight="400" font-size="110" transform="matrix(1 0 0 1 1186.84 298)">(Grid vs Station Metadata) </text><g><g><g><path d="M112.5 103.125C100.781 103.125 91.4063 93.7501 91.4063 82.0313 91.4063 70.3126 100.781 60.9375 112.5 60.9375 124.219 60.9375 133.594 70.3126 133.594 82.0313 133.594 93.7501 124.219 103.125 112.5 103.125ZM112.5 32.8125C96.3282 32.8125 81.0938 40.7813 71.9532 54.375 62.8125 67.7344 60.9375 84.8438 66.7969 100.078L89.0626 149.297 108.281 189.61C108.984 191.25 110.625 192.188 112.5 192.188 114.375 192.188 116.016 191.25 116.719 189.61L135.938 149.297 158.203 100.078C164.063 84.8438 162.188 67.7344 153.047 54.375 143.906 40.7813 128.672 32.8125 112.5 32.8125Z" stroke="#FFFFFF" stroke-width="2.34375" fill="#2F5597" transform="matrix(1.00444 0 0 1 3371 512)"/></g></g></g><text font-family="Calibri,Calibri_MSFontService,sans-serif" font-weight="400" font-size="92" transform="matrix(1 0 0 1 3350.59 797)">Station</text><path d="M3419.17 916.033 3544.73 916.033 3544.73 1048.03 3419.17 1048.03Z" fill="#DBDBDB" fill-rule="evenodd"/><path d="M3419.17 913.742 3419.17 1050.32" stroke="#A5A5A5" stroke-width="4.58333" stroke-linejoin="round" stroke-miterlimit="10" fill="none" fill-rule="evenodd"/><path d="M3544.73 913.742 3544.73 1050.32" stroke="#A5A5A5" stroke-width="4.58333" stroke-linejoin="round" stroke-miterlimit="10" fill="none" fill-rule="evenodd"/><path d="M3416.88 916.033 3547.02 916.033" stroke="#A5A5A5" stroke-width="4.58333" stroke-linejoin="round" stroke-miterlimit="10" fill="none" fill-rule="evenodd"/><path d="M3416.88 1048.03 3547.02 1048.03" stroke="#A5A5A5" stroke-width="4.58333" stroke-linejoin="round" stroke-miterlimit="10" fill="none" fill-rule="evenodd"/><text font-family="Calibri,Calibri_MSFontService,sans-serif" font-weight="400" font-size="92" transform="matrix(1 0 0 1 3325.81 1151)">Nearest </text><text font-family="Calibri,Calibri_MSFontService,sans-serif" font-weight="400" font-size="92" transform="matrix(1 0 0 1 3402.3 1261)">Grid</text><path d="M3428.15 1381.03 3553.71 1381.03 3553.71 1513.03 3428.15 1513.03Z" fill="#8FAADC" fill-rule="evenodd"/><path d="M3428.15 1378.73 3428.15 1515.32" stroke="#A5A5A5" stroke-width="4.58333" stroke-linejoin="round" stroke-miterlimit="10" fill="none" fill-rule="evenodd"/><path d="M3553.71 1378.73 3553.71 1515.32" stroke="#A5A5A5" stroke-width="4.58333" stroke-linejoin="round" stroke-miterlimit="10" fill="none" fill-rule="evenodd"/><path d="M3425.86 1381.03 3556 1381.03" stroke="#A5A5A5" stroke-width="4.58333" stroke-linejoin="round" stroke-miterlimit="10" fill="none" fill-rule="evenodd"/><path d="M3425.86 1513.03 3556 1513.03" stroke="#A5A5A5" stroke-width="4.58333" stroke-linejoin="round" stroke-miterlimit="10" fill="none" fill-rule="evenodd"/><text font-family="Calibri,Calibri_MSFontService,sans-serif" font-weight="400" font-size="92" transform="matrix(1 0 0 1 3223.3 1616)">Optimum Grid</text><text font-family="Calibri,Calibri_MSFontService,sans-serif" font-weight="400" font-size="92" transform="matrix(1 0 0 1 3247.45 1726)">Radius: 1 cell</text><path d="M3428.15 1846.02 3553.71 1846.02 3553.71 1978.02 3428.15 1978.02Z" fill="#DAE3F3" fill-rule="evenodd"/><path d="M3428.15 1843.73 3428.15 1980.31" stroke="#A5A5A5" stroke-width="4.58333" stroke-linejoin="round" stroke-miterlimit="10" fill="none" fill-rule="evenodd"/><path d="M3553.71 1843.73 3553.71 1980.31" stroke="#A5A5A5" stroke-width="4.58333" stroke-linejoin="round" stroke-miterlimit="10" fill="none" fill-rule="evenodd"/><path d="M3425.86 1846.02 3556 1846.02" stroke="#A5A5A5" stroke-width="4.58333" stroke-linejoin="round" stroke-miterlimit="10" fill="none" fill-rule="evenodd"/><path d="M3425.86 1978.02 3556 1978.02" stroke="#A5A5A5" stroke-width="4.58333" stroke-linejoin="round" stroke-miterlimit="10" fill="none" fill-rule="evenodd"/><text font-family="Calibri,Calibri_MSFontService,sans-serif" font-weight="400" font-size="92" transform="matrix(1 0 0 1 3235.13 2081)">Optimum Grid</text><text font-family="Calibri,Calibri_MSFontService,sans-serif" font-weight="400" font-size="92" transform="matrix(1 0 0 1 3241.23 2191)">Radius: 2 cells</text></g></svg>